<svg xmlns="http://www.w3.org/2000/svg" version="1.1" width="1024" height="1024" class="injected-svg" data-src="https://storage.googleapis.com/illustroke-c1d67.appspot.com/IpqcWBfhhpdtdS6pDf2SP9EpP7A3/4lwjfxtqvjavygssz1u01-0.svg" xmlns:xlink="http://www.w3.org/1999/xlink" viewBox="0 0 512 512">
<path d="M0 0 C168.96 0 337.92 0 512 0 C512 168.96 512 337.92 512 512 C343.04 512 174.08 512 0 512 C0 343.04 0 174.08 0 0 Z " fill="#FDFDFD" transform="translate(0,0)"/>
<path d="M0 0 C0.46535156 0.71027344 0.93070312 1.42054687 1.41015625 2.15234375 C7.46861161 12.20266766 9.39649212 22.87727296 8.6484375 34.46875 C7.78646638 51.66216833 9.55953823 58.24043046 26.35498047 63.14306641 C30.67965321 64.54417415 34.57527036 66.65506205 38.5625 68.8125 C39.28179687 69.1748877 40.00109375 69.53727539 40.7421875 69.91064453 C47.59787274 73.47659926 47.59787274 73.47659926 48 77 C46.56479621 79.46616895 45.1475251 81.48107552 43.375 83.6875 C42.33938302 85.03380207 41.30559396 86.3815118 40.2734375 87.73046875 C39.73170898 88.43091309 39.18998047 89.13135742 38.63183594 89.85302734 C35.98771336 93.33184452 33.49859222 96.91599077 31 100.5 C26.24510153 107.27690996 21.38986455 113.97298801 16.47265625 120.6328125 C16.09240799 121.16284378 15.71215973 121.69287506 15.32038879 122.2389679 C14.09234125 123.8768424 12.7431823 125.42195046 11.38745117 126.95581055 C7.86721618 131.92624512 8.29051167 137.18240156 8.328125 143.07421875 C8.31537537 144.23444046 8.30262573 145.39466217 8.28948975 146.59004211 C8.2532715 150.28944361 8.25048206 153.98793725 8.25 157.6875 C8.2282582 161.36886916 8.19958021 165.05010536 8.16766357 168.73139954 C8.15016208 171.01650069 8.13965145 173.30167059 8.13751221 175.58683777 C8.11165662 182.77021004 7.70204836 189.85110146 7 197 C8.47919922 197.14695312 8.47919922 197.14695312 9.98828125 197.296875 C20.40697465 198.3738523 30.74468271 199.82078474 41.09936523 201.39306641 C51.44995578 202.95072493 61.82049916 204.30375542 72.20581055 205.60498047 C96 208.60344163 96 208.60344163 96 211 C93.6541359 212.34054914 91.32916567 213.54131714 88.8984375 214.7109375 C88.15889832 215.07509766 87.41935913 215.43925781 86.65740967 215.81445312 C85.0639061 216.59867612 83.46874235 217.37953266 81.87213135 218.15740967 C77.70243998 220.19053296 73.54646022 222.25123634 69.390625 224.3125 C68.56970367 224.71922943 67.74878235 225.12595886 66.90298462 225.54501343 C57.98915243 229.97528172 49.26392356 234.72038295 40.57275391 239.5703125 C35.83610512 242.20248324 31.07215813 244.78474818 26.3125 247.375 C24.57931709 248.32011081 22.84624016 249.26541603 21.11328125 250.2109375 C20.28650879 250.66049805 19.45973633 251.11005859 18.60791016 251.57324219 C16.72787435 252.60178827 14.8531768 253.64011326 12.98193359 254.68457031 C11.4962085 255.50973145 11.4962085 255.50973145 9.98046875 256.3515625 C8.62344849 257.11073975 8.62344849 257.11073975 7.23901367 257.88525391 C5 259 5 259 3 259 C3.33 259.825 3.66 260.65 4 261.5 C7.0163467 272.05721346 7.0163467 272.05721346 2.41015625 274.2109375 C-1.16180619 275.03743969 -4.40036802 275.27316531 -8.0625 275.375 C-22.76319236 276.15212121 -35.15051219 282.58867051 -48.27636719 288.73120117 C-52.83537081 290.85500377 -57.41892329 292.92437014 -62 295 C-63.23967529 295.56569702 -63.23967529 295.56569702 -64.50439453 296.14282227 C-66.83368313 297.20518432 -69.16642462 298.25959399 -71.5 299.3125 C-72.675625 299.85100586 -72.675625 299.85100586 -73.875 300.40039062 C-75.00421875 300.90795898 -75.00421875 300.90795898 -76.15625 301.42578125 C-76.82462891 301.72911377 -77.49300781 302.03244629 -78.18164062 302.3449707 C-80 303 -80 303 -83 303 C-81.88625 304.0828125 -81.88625 304.0828125 -80.75 305.1875 C-78.30709485 307.68592573 -76.1318953 310.23643202 -74 313 C-77.86491689 313.95064488 -81.57962461 314.15675636 -85.53491211 314.29003906 C-99.12426958 314.75840555 -110.57012537 317.42538956 -123 323 C-124.27119268 323.54646905 -125.54338057 324.09062722 -126.81640625 324.6328125 C-133.38054378 327.44237173 -139.83022726 330.37211295 -146.1875 333.625 C-150.52004223 335.8328831 -154.81181956 337.75928235 -159.375 339.4375 C-164.28770648 341.25680144 -168.90766921 343.36836477 -173.5625 345.75 C-179.8103191 348.93996714 -186.11499954 351.96848782 -192.5 354.875 C-193.32443604 355.25624023 -194.14887207 355.63748047 -194.99829102 356.03027344 C-201.401119 358.92040729 -207.83560251 361.74443711 -215 360.625 C-215.763125 360.51414062 -216.52625 360.40328125 -217.3125 360.2890625 C-218.1478125 360.14597656 -218.1478125 360.14597656 -219 360 C-215.22135662 355.82169242 -211.51932535 353.42659167 -206.5 350.9375 C-199.82004151 347.51208622 -193.25697672 343.93133142 -186.75 340.1875 C-185.874646 339.68436279 -184.99929199 339.18122559 -184.09741211 338.6628418 C-182.30459618 337.63125796 -180.51219982 336.5989446 -178.72021484 335.56591797 C-175.07128395 333.46537563 -171.41547521 331.37698373 -167.7590332 329.28955078 C-165.9719337 328.26922941 -164.1853065 327.24808032 -162.39916992 326.22607422 C-158.62664104 324.06759663 -154.85259246 321.91266933 -151.0625 319.78515625 C-142.8360366 315.1560201 -134.88777276 310.17859853 -127 305 C-127.66 304.71125 -128.32 304.4225 -129 304.125 C-131 303 -131 303 -131 301 C-129.2421875 299.96484375 -129.2421875 299.96484375 -126.875 298.9375 C-125.72644531 298.42509766 -125.72644531 298.42509766 -124.5546875 297.90234375 C-117.00179546 295.23457913 -109.17488569 296.03099381 -101.29296875 296.390625 C-93.10333518 296.55670122 -87.31991767 294.51305943 -80 291 C-77.6490767 289.95525607 -75.29612338 288.91507103 -72.94140625 287.87890625 C-71.09925178 287.05476348 -69.2588763 286.226745 -67.41870117 285.39819336 C-65.56833424 284.56512667 -63.7168812 283.7345143 -61.86523438 282.90429688 C-55.89521428 280.22333257 -49.94725666 277.5050187 -44.02734375 274.71484375 C-39.72088548 272.71486171 -35.62225124 271.07494215 -31 270 C-34.12435491 269.51656634 -37.24959131 269.03906941 -40.375 268.5625 C-41.68017578 268.36043945 -41.68017578 268.36043945 -43.01171875 268.15429688 C-44.79323471 267.88377038 -46.57682449 267.62661324 -48.36206055 267.38183594 C-50.02732267 267.14079291 -51.6875203 266.85768006 -53.33520508 266.51660156 C-60.98230016 265.19446644 -67.64205754 267.53598074 -74.82202148 269.92236328 C-76.92427625 270.62060785 -79.03381033 271.29106095 -81.14648438 271.95703125 C-88.14656499 274.19544287 -94.9008135 276.71169587 -101.54907227 279.86621094 C-105.28233598 281.59320334 -109.11619146 282.9670124 -113 284.3125 C-113.73605469 284.57611328 -114.47210938 284.83972656 -115.23046875 285.11132812 C-118.27215263 286.17785663 -120.75301 287 -124 287 C-124 257.63 -124 228.26 -124 198 C-128.62 199.98 -133.24 201.96 -138 204 C-140.73399351 205.00308636 -143.48083287 205.97354772 -146.25 206.875 C-147.49265625 207.28492188 -148.7353125 207.69484375 -150.015625 208.1171875 C-153 209 -153 209 -155 209 C-155 228.8 -155 248.6 -155 269 C-158.75843567 267.49662573 -161.49154678 266.19236814 -164.80859375 264.04296875 C-166.25274658 263.10783447 -166.25274658 263.10783447 -167.72607422 262.15380859 C-174.19026223 257.90123092 -180.63050123 253.61357085 -187.0625 249.3125 C-188.44979599 248.38595719 -189.83716552 247.4595245 -191.22460938 246.53320312 C-194.01613124 244.66929612 -196.80725947 242.80480176 -199.59814453 240.93994141 C-207.06145235 235.95400089 -214.53106502 230.97750526 -222 226 C-222.12785092 233.57631193 -222.21478817 241.15234087 -222.2746582 248.72949219 C-222.29964361 251.30153804 -222.33364367 253.87351406 -222.37719727 256.4453125 C-222.72137011 277.30623613 -221.47776775 309.2988447 -193.484375 311.16796875 C-187.57567133 311.21017378 -182.68140327 310.56728366 -177 309 C-174 308.875 -174 308.875 -172 309 C-173.25359174 320.70018958 -189.63165541 319.47819112 -198 319 C-224.99335062 316.15859467 -232.58735874 283.76590284 -231.90625 261.609375 C-231.87815247 260.40898087 -231.85005493 259.20858673 -231.82110596 257.97181702 C-231.69829735 252.96070897 -231.56874656 247.95702197 -231.28369141 242.95214844 C-230.27196817 224.02581979 -232.34449819 215.35351183 -250.57200623 208.00006104 C-259.93120393 204.1451216 -259.93120393 204.1451216 -260.12109375 200.984375 C-258.92158285 198.86119891 -257.66815539 197.08727805 -256.0625 195.25 C-255.53785156 194.63640625 -255.01320313 194.0228125 -254.47265625 193.390625 C-253 192 -253 192 -251 192 C-250.67 191.01 -250.34 190.02 -250 189 C-249.34 189 -248.68 189 -248 189 C-247.57847656 188.14728516 -247.57847656 188.14728516 -247.1484375 187.27734375 C-245.72702766 184.45869771 -243.90041045 182.74341666 -241.625 180.5625 C-234.57813729 174.11470929 -234.57813729 174.11470929 -232.48583984 165.20678711 C-232.46594498 163.49361549 -232.46594498 163.49361549 -232.44564819 161.74583435 C-232.45069366 160.51873245 -232.45573914 159.29163055 -232.4609375 158.02734375 C-232.44914459 156.75331192 -232.43735168 155.47928009 -232.42520142 154.16664124 C-232.39587008 150.77951939 -232.38245474 147.39317155 -232.37835693 144.00598145 C-232.37066276 139.26497058 -232.34196979 134.52419429 -232.30337524 129.78334045 C-232.28394546 127.26454972 -232.27438828 124.7456562 -232.27645874 122.22679138 C-232.12623166 97.09484451 -223.30441729 75.78896014 -207 57 C-206.05060547 55.86304688 -206.05060547 55.86304688 -205.08203125 54.703125 C-196.47087571 45.19853831 -184.10082787 38.73678653 -172 35 C-169.15872095 34.04338128 -166.32881396 33.05529897 -163.5 32.0625 C-162.76233398 31.80509033 -162.02466797 31.54768066 -161.26464844 31.2824707 C-156.27198407 29.5167859 -151.49678537 27.46905906 -146.70703125 25.20703125 C-141.93124516 23.07756819 -136.97824901 21.4405238 -132.04394531 19.71972656 C-121.95138611 16.1658727 -111.9368957 12.4569322 -102.09765625 8.25 C-97.4786151 6.38607419 -92.77192032 4.78875557 -88.06591797 3.15991211 C-83.76261669 1.65854671 -79.62814087 -0.00243397 -75.5 -1.9375 C-71.16310946 -3.78067848 -66.6866717 -5.24487848 -62.23413086 -6.7824707 C-58.42981362 -8.10697412 -54.71900603 -9.48634479 -51.0625 -11.1875 C-33.13526953 -19.36423298 -11.48301125 -17.95711254 0 0 Z " fill="#E0EBF5" transform="translate(371,73)"/>
<path d="M0 0 C0.46535156 0.71027344 0.93070312 1.42054687 1.41015625 2.15234375 C8.72530848 14.28739221 9.18598178 27.18806956 9.25 41 C9.2809375 42.71509766 9.2809375 42.71509766 9.3125 44.46484375 C9.31765625 45.54894531 9.3228125 46.63304687 9.328125 47.75 C9.3374707 48.73484375 9.34681641 49.7196875 9.35644531 50.734375 C9 53 9 53 6 54 C1.02798991 52.00350658 0.38627056 50.25556411 0.43359375 45.0390625 C0.42263672 43.84410156 0.41167969 42.64914063 0.40039062 41.41796875 C0.41263672 40.16628906 0.42488281 38.91460937 0.4375 37.625 C0.57896386 17.14538581 -6.13162045 -5.61316205 -30 -8 C-30.96679688 -8.09667969 -30.96679688 -8.09667969 -31.953125 -8.1953125 C-41.93351434 -8.73382272 -51.00922207 -4.0607639 -59.98828125 -0.22265625 C-63.99599991 1.40434237 -68.08509508 2.70647039 -72.19921875 4.03515625 C-75.46074293 5.15872176 -78.53023384 6.55025337 -81.65625 8 C-84.39382303 9.16803116 -87.16817042 10.08466115 -90 11 C-93.4985089 12.13251606 -96.85763255 13.31633864 -100.1875 14.875 C-104.48524789 16.8712217 -108.89948766 18.39784206 -113.375 19.9375 C-118.19392722 21.59905571 -122.89029016 23.30792086 -127.5 25.5 C-132.82636698 28.03287482 -138.31268898 29.92099136 -143.88061523 31.83984375 C-148.22800963 33.34708291 -152.41803093 34.99400389 -156.5859375 36.94921875 C-159.22253213 38.09686269 -161.90495532 39.08008318 -164.60839844 40.05786133 C-209.67638914 56.41591197 -223.708646 89.58929912 -223.8125 135.1875 C-223.83570157 137.60614178 -223.86107836 140.02476371 -223.88867188 142.44335938 C-223.95079586 148.29558175 -223.98631152 154.14747401 -224 160 C-221.84504782 160.30071141 -221.84504782 160.30071141 -221.2265625 158.3828125 C-219.50540143 155.03915564 -216.9528599 152.56692099 -214.375 149.875 C-209.98362517 145.21133244 -205.86892555 140.44796049 -201.92578125 135.39453125 C-199.87122972 132.83988605 -197.71013238 130.42097976 -195.5 128 C-192.61038106 124.82978774 -189.84489032 121.61712811 -187.1875 118.25 C-179.55601395 108.58547393 -171.42123494 99.34018488 -163.05859375 90.3046875 C-160.98159105 88.07592514 -160.98159105 88.07592514 -159.41015625 85.6953125 C-158 84 -158 84 -155 84 C-155 100.83 -155 117.66 -155 135 C-149.99328125 134.94199219 -144.9865625 134.88398438 -139.828125 134.82421875 C-136.6562176 134.79867083 -133.48443706 134.77460153 -130.3125 134.75585938 C-125.27772681 134.72596927 -120.24340826 134.69061095 -115.20898438 134.62280273 C-111.15002208 134.56847506 -107.09154726 134.53857817 -103.03224945 134.52561378 C-101.48363316 134.51637509 -99.93504357 134.49833354 -98.38663483 134.47134972 C-96.21713121 134.43504588 -94.04964131 134.43005469 -91.87988281 134.43237305 C-90.64522278 134.42126999 -89.41056274 134.41016693 -88.13848877 134.39872742 C-79.01328738 136.14693613 -80.38304143 145.15976154 -80.35546875 152.62133789 C-80.32567932 154.5440023 -80.32567932 154.5440023 -80.29528809 156.50550842 C-80.24296224 160.01362565 -80.21705032 163.52143745 -80.19924545 167.02988362 C-80.18750254 169.22218295 -80.1710804 171.41439952 -80.15322876 173.60665703 C-80.09859092 180.46772132 -80.05988717 187.3285956 -80.0444212 194.18986231 C-80.02647188 202.10855015 -79.95614916 210.02448488 -79.84041882 217.94233519 C-79.75401213 224.06649687 -79.71360837 230.18988274 -79.70825672 236.31464761 C-79.70406156 239.97219147 -79.68039852 243.62714248 -79.60897827 247.28404427 C-79.53090431 251.36042243 -79.54817239 255.43101494 -79.57421875 259.50805664 C-79.51893005 261.32614838 -79.51893005 261.32614838 -79.46252441 263.18096924 C-79.66320799 273.17110101 -83.95809117 274.04058936 -93 276 C-94.75081902 276.74255386 -96.48506188 277.52738103 -98.1875 278.375 C-103.03107932 280.65141136 -107.96149658 282.52284735 -113 284.3125 C-113.7427417 284.5791748 -114.4854834 284.84584961 -115.25073242 285.12060547 C-118.28602948 286.18179081 -120.76086185 287 -124 287 C-124 257.63 -124 228.26 -124 198 C-128.62 199.98 -133.24 201.96 -138 204 C-140.73399351 205.00308636 -143.48083287 205.97354772 -146.25 206.875 C-147.49265625 207.28492188 -148.7353125 207.69484375 -150.015625 208.1171875 C-153 209 -153 209 -155 209 C-155 228.8 -155 248.6 -155 269 C-158.75843567 267.49662573 -161.49154678 266.19236814 -164.80859375 264.04296875 C-166.25274658 263.10783447 -166.25274658 263.10783447 -167.72607422 262.15380859 C-174.19026223 257.90123092 -180.63050123 253.61357085 -187.0625 249.3125 C-188.44979599 248.38595719 -189.83716552 247.4595245 -191.22460938 246.53320312 C-194.01613124 244.66929612 -196.80725947 242.80480176 -199.59814453 240.93994141 C-207.06145235 235.95400089 -214.53106502 230.97750526 -222 226 C-222.12785092 233.57631193 -222.21478817 241.15234087 -222.2746582 248.72949219 C-222.29964361 251.30153804 -222.33364367 253.87351406 -222.37719727 256.4453125 C-222.72137011 277.30623613 -221.47776775 309.2988447 -193.484375 311.16796875 C-187.57567133 311.21017378 -182.68140327 310.56728366 -177 309 C-174 308.875 -174 308.875 -172 309 C-173.25359174 320.70018958 -189.63165541 319.47819112 -198 319 C-224.99335062 316.15859467 -232.58735874 283.76590284 -231.90625 261.609375 C-231.87815247 260.40898087 -231.85005493 259.20858673 -231.82110596 257.97181702 C-231.69829735 252.96070897 -231.56874656 247.95702197 -231.28369141 242.95214844 C-230.27196817 224.02581979 -232.34449819 215.35351183 -250.57200623 208.00006104 C-259.93120393 204.1451216 -259.93120393 204.1451216 -260.12109375 200.984375 C-258.92158285 198.86119891 -257.66815539 197.08727805 -256.0625 195.25 C-255.53785156 194.63640625 -255.01320313 194.0228125 -254.47265625 193.390625 C-253 192 -253 192 -251 192 C-250.67 191.01 -250.34 190.02 -250 189 C-249.34 189 -248.68 189 -248 189 C-247.57847656 188.14728516 -247.57847656 188.14728516 -247.1484375 187.27734375 C-245.72702766 184.45869771 -243.90041045 182.74341666 -241.625 180.5625 C-234.57813729 174.11470929 -234.57813729 174.11470929 -232.48583984 165.20678711 C-232.46594498 163.49361549 -232.46594498 163.49361549 -232.44564819 161.74583435 C-232.45069366 160.51873245 -232.45573914 159.29163055 -232.4609375 158.02734375 C-232.44914459 156.75331192 -232.43735168 155.47928009 -232.42520142 154.16664124 C-232.39587008 150.77951939 -232.38245474 147.39317155 -232.37835693 144.00598145 C-232.37066276 139.26497058 -232.34196979 134.52419429 -232.30337524 129.78334045 C-232.28394546 127.26454972 -232.27438828 124.7456562 -232.27645874 122.22679138 C-232.12623166 97.09484451 -223.30441729 75.78896014 -207 57 C-206.05060547 55.86304688 -206.05060547 55.86304688 -205.08203125 54.703125 C-196.47087571 45.19853831 -184.10082787 38.73678653 -172 35 C-169.15872095 34.04338128 -166.32881396 33.05529897 -163.5 32.0625 C-162.76233398 31.80509033 -162.02466797 31.54768066 -161.26464844 31.2824707 C-156.27198407 29.5167859 -151.49678537 27.46905906 -146.70703125 25.20703125 C-141.93124516 23.07756819 -136.97824901 21.4405238 -132.04394531 19.71972656 C-121.95138611 16.1658727 -111.9368957 12.4569322 -102.09765625 8.25 C-97.4786151 6.38607419 -92.77192032 4.78875557 -88.06591797 3.15991211 C-83.76261669 1.65854671 -79.62814087 -0.00243397 -75.5 -1.9375 C-71.16310946 -3.78067848 -66.6866717 -5.24487848 -62.23413086 -6.7824707 C-58.42981362 -8.10697412 -54.71900603 -9.48634479 -51.0625 -11.1875 C-33.13526953 -19.36423298 -11.48301125 -17.95711254 0 0 Z " fill="#F1B851" transform="translate(371,73)"/>
<path d="M0 0 C1.08927005 5.77498646 0.91264741 11.52441372 0.78955078 17.37939453 C0.77601563 18.61753906 0.76248047 19.85568359 0.74853516 21.13134766 C0.71354689 24.15200163 0.66445803 27.17170393 0.60205078 30.19189453 C-5.02083867 28.43983478 -10.26336566 26.44198393 -15.52294922 23.75439453 C-16.179646 23.42165527 -16.83634277 23.08891602 -17.51293945 22.74609375 C-21.79805595 20.56367281 -26.0507338 18.32153116 -30.30029297 16.07080078 C-31.31913574 15.53318115 -32.33797852 14.99556152 -33.38769531 14.44165039 C-35.40056941 13.37731882 -37.41015517 12.30673942 -39.41601562 11.22924805 C-44.36027337 8.61122304 -48.93728571 6.44913467 -54.39794922 5.19189453 C-55.42511983 8.53877515 -55.46113783 11.47798482 -55.34936523 14.96679688 C-55.19180147 20.74066393 -55.09209788 26.51186501 -55.04223728 32.28748131 C-55.0078898 35.7778727 -54.94460459 39.26309039 -54.81860352 42.75146484 C-53.80564871 71.93419894 -53.80564871 71.93419894 -72.39794922 74.19189453 C-74.7153579 75.10821663 -74.7153579 75.10821663 -76.39794922 76.19189453 C-80.91375261 78.61107492 -85.74272269 80.22069867 -90.54321289 81.9765625 C-94.6823988 83.50507115 -98.59446977 85.18930022 -102.49169922 87.26611328 C-105.73775219 88.84257753 -109.1618653 89.93626293 -112.56201172 91.13330078 C-115.31001797 92.15907171 -117.93160438 93.31966715 -120.58544922 94.56689453 C-125.7819604 96.99044624 -131.08405994 98.97929541 -136.46362305 100.94775391 C-141.55081859 102.82670369 -146.4682641 104.95981014 -151.35888672 107.30908203 C-153.39794922 108.19189453 -153.39794922 108.19189453 -155.39794922 108.19189453 C-155.39794922 93.67189453 -155.39794922 79.15189453 -155.39794922 64.19189453 C-159.47793912 66.23188948 -160.68769745 67.49851961 -163.39794922 71.00439453 C-166.85730961 75.35978598 -170.45246155 79.46445166 -174.27294922 83.50439453 C-178.93572514 88.46085949 -183.17642363 93.62538836 -187.31665039 99.0222168 C-190.81867799 103.55042874 -194.57161826 107.75956801 -198.48413086 111.93432617 C-201.96911345 115.66899407 -205.13540396 119.57499665 -208.27685547 123.59814453 C-211.29970047 127.29458851 -214.53853223 130.77804669 -217.80615234 134.25830078 C-220.40656521 137.00347615 -220.40656521 137.00347615 -222.39794922 140.19189453 C-226.10195645 140.19189453 -224.55245242 132.79374081 -224.60888672 129.59033203 C-224.65367934 126.12145565 -224.69223252 122.65257959 -224.72753906 119.18359375 C-224.75732006 116.81168129 -224.79795914 114.43987494 -224.85058594 112.06835938 C-225.65310779 74.91631836 -212.9093408 37.41031333 -175.39794922 23.19189453 C-174.77452637 22.95519043 -174.15110352 22.71848633 -173.50878906 22.47460938 C-170.72927943 21.42238072 -167.94731967 20.37759275 -165.15820312 19.35107422 C-161.69855445 18.07581728 -158.3000856 16.75471466 -154.96044922 15.19189453 C-150.03226005 12.91225233 -144.89618236 11.24449935 -139.76855469 9.47753906 C-134.69774351 7.70839187 -129.86430149 5.64926291 -125.01123047 3.34423828 C-121.17200001 1.65130407 -117.20646341 0.42864365 -113.21435547 -0.85107422 C-110.78733245 -1.67579078 -108.52834387 -2.59784844 -106.21044922 -3.68310547 C-101.21546065 -5.9989638 -96.03725713 -7.7250848 -90.83984375 -9.52197266 C-85.53941829 -11.36833215 -80.38223352 -13.44921697 -75.22216797 -15.65966797 C-71.34741426 -17.23529396 -67.38838226 -18.48831859 -63.40966797 -19.77294922 C-60.2799263 -20.84867106 -57.25632607 -22.07736244 -54.21044922 -23.37060547 C-30.57519579 -33.34172801 -7.11761041 -27.11018719 0 0 Z " fill="#E5EFF8" transform="translate(371.39794921875,92.80810546875)"/>
<path d="M0 0 C7.44543552 4.19818779 14.89705058 8.13962238 22.67358398 11.68359375 C28.23773554 14.2364386 33.61897913 17.06676415 38.95678711 20.06347656 C41.76616582 21.61342468 43.42122593 22.5 46.6875 22.5 C47.08710938 22.92023438 47.48671875 23.34046875 47.8984375 23.7734375 C50.59507885 26.37587303 53.93221457 27.61389381 57.3125 29.125 C63.64898462 32.04265658 69.92648966 35.04857158 76.125 38.25 C76.85219238 38.61432129 77.57938477 38.97864258 78.32861328 39.35400391 C85.29988983 42.99879994 85.29988983 42.99879994 85.6875 46.5 C84.25229621 48.96616895 82.8350251 50.98107552 81.0625 53.1875 C80.02688302 54.53380207 78.99309396 55.8815118 77.9609375 57.23046875 C77.41920898 57.93091309 76.87748047 58.63135742 76.31933594 59.35302734 C73.67520662 62.83185338 71.18627114 66.41610677 68.6875 70 C63.61233217 77.22730628 58.43122865 84.36903581 53.18408203 91.47216797 C51.55583266 93.67840602 49.93195247 95.88781739 48.30859375 98.09765625 C41.26687093 107.67825137 34.17590564 117.2198365 27.02636719 126.72021484 C25.01456146 129.39455177 23.00737822 132.07233805 21 134.75 C15.58984375 141.96354167 10.1796875 149.17708333 4.76953125 156.390625 C4.01119995 157.40213623 4.01119995 157.40213623 3.23754883 158.43408203 C2.20848046 159.80563292 1.17837792 161.17640851 0.1472168 162.54638672 C-2.23919317 165.71933598 -4.61119434 168.89984274 -6.9375 172.1171875 C-7.54271484 172.94669922 -7.54271484 172.94669922 -8.16015625 173.79296875 C-9.23742918 175.27193667 -10.30652771 176.75684913 -11.375 178.2421875 C-13.27188015 180.45266478 -14.56954001 181.56597483 -17.3125 182.5 C-19.04568919 180.76681081 -18.43112017 178.42113946 -18.42602539 176.06225586 C-18.42591209 174.32056374 -18.42591209 174.32056374 -18.42579651 172.54368591 C-18.42063522 171.280168 -18.41547394 170.01665009 -18.41015625 168.71484375 C-18.4087413 167.42888809 -18.40732635 166.14293243 -18.40586853 164.81800842 C-18.40204418 161.39356557 -18.39221462 157.96916491 -18.38116455 154.54473877 C-18.37094864 151.05261811 -18.36637053 147.56049066 -18.36132812 144.06835938 C-18.35059227 137.21222222 -18.33351684 130.35611313 -18.3125 123.5 C-20.23968699 124.29973264 -22.16654449 125.10025931 -24.09326172 125.90112305 C-25.16631561 126.34683151 -26.23936951 126.79253998 -27.34494019 127.25175476 C-31.32463502 128.92573454 -35.22777618 130.74270255 -39.1328125 132.58203125 C-41.3125 133.5 -41.3125 133.5 -43.3125 133.5 C-43.32708252 132.79391602 -43.34166504 132.08783203 -43.35668945 131.36035156 C-43.43123167 128.15635326 -43.52787205 124.95338984 -43.625 121.75 C-43.64755859 120.63882813 -43.67011719 119.52765625 -43.69335938 118.3828125 C-43.72880859 117.31289062 -43.76425781 116.24296875 -43.80078125 115.140625 C-43.82696533 114.15610352 -43.85314941 113.17158203 -43.88012695 112.15722656 C-44.92304711 105.74777256 -48.00336397 104.99773168 -54.07885742 104.95410156 C-55.10363945 104.93859505 -55.10363945 104.93859505 -56.14912415 104.92277527 C-58.40564476 104.89329451 -60.66127051 104.8918471 -62.91796875 104.890625 C-64.48311581 104.87564677 -66.04824703 104.85892037 -67.61335754 104.84051514 C-71.73152381 104.79678862 -75.84947687 104.77683102 -79.96783447 104.76177979 C-84.17074214 104.74222761 -88.3734189 104.70025558 -92.57617188 104.66015625 C-100.82155425 104.58479686 -109.0668461 104.53454037 -117.3125 104.5 C-117.52363489 96.70851915 -117.52363489 96.70851915 -113.76171875 95.20703125 C-113.00576416 94.88903564 -112.24980957 94.57104004 -111.47094727 94.2434082 C-110.65553467 93.9362085 -109.84012207 93.62900879 -109 93.3125 C-107.76237915 92.80626099 -107.76237915 92.80626099 -106.49975586 92.28979492 C-101.32030592 90.19355629 -96.078578 88.2519831 -90.80078125 86.41796875 C-87.20855405 85.0927358 -83.77833433 83.45804065 -80.30859375 81.84375 C-76.95139976 80.3380463 -73.5481603 78.97120656 -70.125 77.625 C-64.71304338 75.49629706 -59.37654348 73.2372885 -54.0625 70.875 C-48.67922706 68.48250612 -43.27435151 66.34870331 -37.7109375 64.40234375 C-34.69643881 63.26822453 -31.87979529 61.86345511 -29.0234375 60.3828125 C-25.16924628 58.39412023 -22.69968091 57.5 -18.3125 57.5 C-18.31694122 56.76972595 -18.32138245 56.0394519 -18.32595825 55.28704834 C-18.36605086 48.40116012 -18.39649251 41.51528938 -18.41612434 34.62931442 C-18.42655661 31.08925136 -18.44070554 27.54928484 -18.46337891 24.00927734 C-18.48928851 19.93846719 -18.49897738 15.86775828 -18.5078125 11.796875 C-18.51813507 10.52696716 -18.52845764 9.25705933 -18.53909302 7.94866943 C-18.53924408 6.76774719 -18.53939514 5.58682495 -18.53955078 4.37011719 C-18.543992 3.33087097 -18.54843323 2.29162476 -18.55300903 1.22088623 C-17.45595818 -11.19008447 -6.73885712 -3.90931713 0 0 Z " fill="#60B4FA" transform="translate(333.3125,103.5)"/>
<path d="M0 0 C11.4675 -0.103125 22.935 -0.20625 34.75 -0.3125 C38.36807617 -0.35802002 41.98615234 -0.40354004 45.71386719 -0.45043945 C50.13916016 -0.47302246 50.13916016 -0.47302246 52.21221924 -0.47721863 C53.65712179 -0.48488628 55.10199273 -0.50245124 56.54669189 -0.52787781 C58.73839692 -0.56451631 60.92815153 -0.56952955 63.12011719 -0.56762695 C64.97210724 -0.58428154 64.97210724 -0.58428154 66.86151123 -0.60127258 C75.98671262 1.14693613 74.61695857 10.15976154 74.64453125 17.62133789 C74.66439087 18.90311417 74.68425049 20.18489044 74.70471191 21.50550842 C74.75703776 25.01362565 74.78294968 28.52143745 74.80075455 32.02988362 C74.81249746 34.22218295 74.8289196 36.41439952 74.84677124 38.60665703 C74.90140908 45.46772132 74.94011283 52.3285956 74.9555788 59.18986231 C74.97352812 67.10855015 75.04385084 75.02448488 75.15958118 82.94233519 C75.24598787 89.06649687 75.28639163 95.18988274 75.29174328 101.31464761 C75.29593844 104.97219147 75.31960148 108.62714248 75.39102173 112.28404427 C75.46909569 116.36042243 75.45182761 120.43101494 75.42578125 124.50805664 C75.46264038 125.7201178 75.49949951 126.93217896 75.53747559 128.18096924 C75.33679201 138.17110101 71.04190883 139.04058936 62 141 C60.24918098 141.74255386 58.51493812 142.52738103 56.8125 143.375 C51.96892068 145.65141136 47.03850342 147.52284735 42 149.3125 C41.2572583 149.5791748 40.5145166 149.84584961 39.74926758 150.12060547 C36.71397052 151.18179081 34.23913815 152 31 152 C31 122.63 31 93.26 31 63 C26.38 64.98 21.76 66.96 17 69 C14.26600649 70.00308636 11.51916713 70.97354772 8.75 71.875 C7.50734375 72.28492188 6.2646875 72.69484375 4.984375 73.1171875 C2 74 2 74 0 74 C0 49.58 0 25.16 0 0 Z " fill="#8CB752" transform="translate(216,208)"/>
<path d="M0 0 C-0.00444122 1.11277817 -0.00888245 2.22555634 -0.01345825 3.37205505 C-0.05391906 13.83491016 -0.08394325 24.29774949 -0.10362434 34.76066494 C-0.11408255 40.14036241 -0.12827871 45.51999696 -0.15087891 50.8996582 C-0.17253491 56.08675318 -0.18455325 61.27378747 -0.18975449 66.46092415 C-0.19346332 68.4445701 -0.20070519 70.42821255 -0.21146011 72.41183281 C-0.22587894 75.18014707 -0.22798201 77.94820726 -0.22705078 80.71655273 C-0.23783661 81.95948341 -0.23783661 81.95948341 -0.24884033 83.2275238 C-0.6730693 87.42004973 -0.6730693 87.42004973 2 90 C-2.94345555 92.06392914 -7.8873187 94.12687789 -12.83154297 96.18896484 C-14.50938655 96.88889844 -16.1871233 97.58908816 -17.86474609 98.28955078 C-22.57123825 100.25456031 -27.27963157 102.21484853 -31.99157715 104.16674805 C-33.75914855 104.90007585 -35.52475248 105.63814218 -37.29003906 106.37695312 C-38.1765918 106.74240234 -39.06314453 107.10785156 -39.9765625 107.484375 C-40.70182129 107.78569336 -41.42708008 108.08701172 -42.17431641 108.39746094 C-44 109 -44 109 -47 109 C-47.74276031 110.97080157 -47.74276031 110.97080157 -48 113 C-48 112.34 -48 111.68 -48 111 C-48.81082031 111.2165625 -49.62164062 111.433125 -50.45703125 111.65625 C-70.93427235 116.80535836 -87.19235858 112.44508211 -96 92 C-96.27157425 91.36969376 -96.5431485 90.73938751 -96.82295227 90.08998108 C-99.38766506 83.35532257 -99.38678242 77.01127513 -99.29296875 69.87109375 C-99.28872391 68.64084976 -99.28447906 67.41060577 -99.28010559 66.14308167 C-99.26340766 62.24099184 -99.22577075 58.33943188 -99.1875 54.4375 C-99.17073803 51.78060652 -99.15875539 49.12371802 -99.14648438 46.46679688 C-99.11353318 39.97768595 -99.06342238 33.48888085 -99 27 C-92.39492178 30.73379851 -85.99391431 34.58938554 -79.82275391 39.00439453 C-74.24699652 42.94629393 -68.54195801 46.70067581 -62.8605957 50.48803711 C-60.70029529 51.9289655 -58.54248904 53.37357586 -56.38476562 54.81835938 C-48.02961641 60.39932815 -39.59516654 65.79587275 -31 71 C-31.0566256 69.89245865 -31.0566256 69.89245865 -31.11439514 68.76254272 C-31.45557707 61.79061071 -31.71406965 54.81992691 -31.88080692 47.84178734 C-31.96944263 44.25336347 -32.08940555 40.6718457 -32.2824707 37.08740234 C-33.85876648 7.0603949 -33.85876648 7.0603949 -16.13801575 5.30545044 C-12.8027191 4.82894889 -10.1109637 3.53983376 -7.0625 2.125 C-2.20440252 0 -2.20440252 0 0 0 Z " fill="#DAE6F0" transform="translate(247,271)"/>
<path d="M0 0 C0.41739539 11.7426501 0.73702003 23.48353413 0.93261909 35.23209476 C1.02651605 40.68823994 1.15375156 46.13930811 1.35791016 51.5925293 C1.55379977 56.85795474 1.66115075 62.11850905 1.70779037 67.38729668 C1.74100822 69.39466613 1.80589884 71.40177274 1.90314102 73.40706062 C2.61872809 88.77777175 -0.41864139 93.93811548 -15.63862991 97.40774345 C-19.45354203 98.36456369 -23.04476024 99.84728269 -26.6875 101.3125 C-31.3984002 103.12368365 -36.14021591 104.63439597 -41 106 C-41.37085239 94.37018257 -41.65505356 82.74177113 -41.82899475 71.10724449 C-41.91248871 65.70430016 -42.02566273 60.30540038 -42.20703125 54.90478516 C-42.38101651 49.69133632 -42.4765558 44.48177159 -42.51803589 39.26564407 C-42.54758494 37.27714422 -42.6053041 35.28885609 -42.69168091 33.3020134 C-43.28498102 19.08832926 -41.55315491 13.32402641 -27.01086426 10.45817947 C-23.96904102 9.76509392 -21.21320073 8.52315062 -18.375 7.25 C-15.55577643 6.03829932 -12.7847841 4.92853005 -9.87109375 3.9609375 C-6.84403585 2.94779976 -3.10405691 0 0 0 Z " fill="#555354" transform="translate(289,254)"/>
<path d="M0 0 C0.92917236 0.17362061 1.85834473 0.34724121 2.81567383 0.52612305 C9.32936675 1.83151462 11.84974399 2.44338079 12.625 9.5625 C12.74617187 10.53058594 12.86734375 11.49867188 12.9921875 12.49609375 C12.41381532 18.77423045 7.03536366 18.46933244 1.8125 18.5625 C-12.959917 19.23324566 -25.34610341 25.68820873 -38.52636719 31.85620117 C-43.08537081 33.98000377 -47.66892329 36.04937014 -52.25 38.125 C-53.0764502 38.50213135 -53.90290039 38.8792627 -54.75439453 39.26782227 C-57.08368313 40.33018432 -59.41642462 41.38459399 -61.75 42.4375 C-62.53375 42.79650391 -63.3175 43.15550781 -64.125 43.52539062 C-65.25421875 44.03295898 -65.25421875 44.03295898 -66.40625 44.55078125 C-67.07462891 44.85411377 -67.74300781 45.15744629 -68.43164062 45.4699707 C-70.25 46.125 -70.25 46.125 -73.25 46.125 C-72.5075 46.846875 -71.765 47.56875 -71 48.3125 C-68.55709485 50.81092573 -66.3818953 53.36143202 -64.25 56.125 C-68.11491689 57.07564488 -71.82962461 57.28175636 -75.78491211 57.41503906 C-89.37426958 57.88340555 -100.82012537 60.55038956 -113.25 66.125 C-114.52119268 66.67146905 -115.79338057 67.21562722 -117.06640625 67.7578125 C-123.63054378 70.56737173 -130.08022726 73.49711295 -136.4375 76.75 C-140.77004223 78.9578831 -145.06181956 80.88428235 -149.625 82.5625 C-154.53770648 84.38180144 -159.15766921 86.49336477 -163.8125 88.875 C-170.0603191 92.06496714 -176.36499954 95.09348782 -182.75 98 C-183.98665405 98.57186035 -183.98665405 98.57186035 -185.24829102 99.15527344 C-191.651119 102.04540729 -198.08560251 104.86943711 -205.25 103.75 C-206.013125 103.63914062 -206.77625 103.52828125 -207.5625 103.4140625 C-208.119375 103.31867188 -208.67625 103.22328125 -209.25 103.125 C-205.47135662 98.94669242 -201.76932535 96.55159167 -196.75 94.0625 C-190.07004151 90.63708622 -183.50697672 87.05633142 -177 83.3125 C-176.124646 82.80936279 -175.24929199 82.30622559 -174.34741211 81.7878418 C-172.55459618 80.75625796 -170.76219982 79.7239446 -168.97021484 78.69091797 C-165.32128395 76.59037563 -161.66547521 74.50198373 -158.0090332 72.41455078 C-156.2219337 71.39422941 -154.4353065 70.37308032 -152.64916992 69.35107422 C-148.87664104 67.19259663 -145.10259246 65.03766933 -141.3125 62.91015625 C-133.0860366 58.2810201 -125.13777276 53.30359853 -117.25 48.125 C-118.24 47.691875 -118.24 47.691875 -119.25 47.25 C-121.25 46.125 -121.25 46.125 -121.25 44.125 C-119.4921875 43.08984375 -119.4921875 43.08984375 -117.125 42.0625 C-116.35929687 41.72089844 -115.59359375 41.37929688 -114.8046875 41.02734375 C-107.25179546 38.35957913 -99.42488569 39.15599381 -91.54296875 39.515625 C-83.35333518 39.68170122 -77.56991767 37.63805943 -70.25 34.125 C-67.8990767 33.08025607 -65.54612338 32.04007103 -63.19140625 31.00390625 C-61.34925178 30.17976348 -59.5088763 29.351745 -57.66870117 28.52319336 C-55.81833424 27.69012667 -53.9668812 26.8595143 -52.11523438 26.02929688 C-46.14521428 23.34833257 -40.19725666 20.6300187 -34.27734375 17.83984375 C-29.97088548 15.83986171 -25.87225124 14.19994215 -21.25 13.125 C-21.83491211 13.04983154 -22.41982422 12.97466309 -23.02246094 12.8972168 C-25.68344681 12.54810094 -28.34156366 12.18050668 -31 11.8125 C-31.92039062 11.69455078 -32.84078125 11.57660156 -33.7890625 11.45507812 C-34.67851562 11.32939453 -35.56796875 11.20371094 -36.484375 11.07421875 C-37.70979004 10.90925903 -37.70979004 10.90925903 -38.95996094 10.7409668 C-41.60021668 10.03079993 -43.17805143 8.87866731 -45.25 7.125 C-40.0437153 4.42544497 -34.81812728 2.08103707 -29.3515625 -0.04296875 C-19.85989007 -3.80082419 -9.84472424 -1.86024146 0 0 Z " fill="#C2C2C1" transform="translate(361.25,329.875)"/>
<path d="M0 0 C10.35059055 1.55765852 20.72113392 2.91068902 31.10644531 4.21191406 C54.90063477 7.21037523 54.90063477 7.21037523 54.90063477 9.60693359 C52.55477067 10.94748273 50.22980044 12.14825073 47.79907227 13.31787109 C47.05953308 13.68203125 46.3199939 14.04619141 45.55804443 14.42138672 C43.96454087 15.20560972 42.36937711 15.98646625 40.77276611 16.76434326 C36.60307475 18.79746655 32.44709498 20.85816993 28.29125977 22.91943359 C27.47033844 23.32616302 26.64941711 23.73289246 25.80361938 24.15194702 C16.88978719 28.58221531 8.16455833 33.32731655 -0.52661133 38.17724609 C-5.26326011 40.80941683 -10.02720711 43.39168178 -14.78686523 45.98193359 C-16.52004815 46.92704441 -18.25312507 47.87234962 -19.98608398 48.81787109 C-21.22624268 49.49221191 -21.22624268 49.49221191 -22.49145508 50.18017578 C-24.37149088 51.20872186 -26.24618844 52.24704685 -28.11743164 53.29150391 C-29.10791504 53.84161133 -30.09839844 54.39171875 -31.11889648 54.95849609 C-32.47591675 55.71767334 -32.47591675 55.71767334 -33.86035156 56.4921875 C-36.09936523 57.60693359 -36.09936523 57.60693359 -38.09936523 57.60693359 C-37.76936523 58.43193359 -37.43936523 59.25693359 -37.09936523 60.10693359 C-34.14814572 70.43620189 -34.14814572 70.43620189 -38.59936523 73.10693359 C-39.42436523 73.27193359 -40.24936523 73.43693359 -41.09936523 73.60693359 C-40.09936523 70.60693359 -40.09936523 70.60693359 -38.09936523 70.60693359 C-38.27349267 68.81161973 -38.48989194 67.02036713 -38.72436523 65.23193359 C-38.84038086 64.23419922 -38.95639648 63.23646484 -39.07592773 62.20849609 C-40.56055743 58.43459007 -42.23270796 58.45679728 -46.09936523 57.60693359 C-47.32010742 57.33751953 -48.54084961 57.06810547 -49.79858398 56.79052734 C-51.12690901 56.53600889 -52.4563948 56.28748798 -53.78686523 56.04443359 C-54.48295898 55.91512451 -55.17905273 55.78581543 -55.89624023 55.65258789 C-61.60605835 54.62537268 -67.30689851 53.96282668 -73.09936523 53.60693359 C-70.05394087 51.18935738 -66.89590857 49.38159473 -63.47436523 47.54443359 C-24.28480727 24.56466846 -52.25759895 -7.93492844 0 0 Z " fill="#DBDBDB" transform="translate(412.099365234375,274.39306640625)"/>
<path d="M0 0 C0.46535156 0.71027344 0.93070313 1.42054687 1.41015625 2.15234375 C8.72530848 14.28739221 9.18598178 27.18806956 9.25 41 C9.2809375 42.71509766 9.2809375 42.71509766 9.3125 44.46484375 C9.32023437 46.09099609 9.32023437 46.09099609 9.328125 47.75 C9.3374707 48.73484375 9.34681641 49.7196875 9.35644531 50.734375 C9 53 9 53 6 54 C1.02798991 52.00350658 0.38627056 50.25556411 0.43359375 45.0390625 C0.42263672 43.84410156 0.41167969 42.64914063 0.40039062 41.41796875 C0.41263672 40.16628906 0.42488281 38.91460937 0.4375 37.625 C0.57896386 17.14538581 -6.13162045 -5.61316205 -30 -8 C-30.96679688 -8.09667969 -30.96679688 -8.09667969 -31.953125 -8.1953125 C-41.93351434 -8.73382272 -51.00922207 -4.0607639 -59.98828125 -0.22265625 C-63.99599991 1.40434237 -68.08509508 2.70647039 -72.19921875 4.03515625 C-75.46074293 5.15872176 -78.53023384 6.55025337 -81.65625 8 C-84.39382303 9.16803116 -87.16817042 10.08466115 -90 11 C-93.4985089 12.13251606 -96.85763255 13.31633864 -100.1875 14.875 C-104.48524789 16.8712217 -108.89948766 18.39784206 -113.375 19.9375 C-118.19392722 21.59905571 -122.89029016 23.30792086 -127.5 25.5 C-132.82636698 28.03287482 -138.31268898 29.92099136 -143.88061523 31.83984375 C-148.22800963 33.34708291 -152.41803093 34.99400389 -156.5859375 36.94921875 C-159.22253213 38.09686269 -161.90495532 39.08008318 -164.60839844 40.05786133 C-212.25905953 57.35332791 -224.02064725 92.55553919 -223.31933594 140.01708984 C-223.27464829 143.66293593 -223.27208316 147.30704913 -223.2734375 150.953125 C-223.24349701 152.06044983 -223.21355652 153.16777466 -223.18270874 154.30865479 C-223.20671046 161.74688187 -224.76188511 165.69022832 -231 170 C-231.33 170 -231.66 170 -232 170 C-232.04666572 162.64501647 -232.08204099 155.29006569 -232.10362434 147.93496323 C-232.11399151 144.51843731 -232.12801871 141.10201385 -232.15087891 137.68554688 C-232.177086 133.74350274 -232.18653112 129.8014978 -232.1953125 125.859375 C-232.20563507 124.65263123 -232.21595764 123.44588745 -232.22659302 122.20257568 C-232.22986038 97.10617632 -223.2628385 75.74104538 -207 57 C-206.36707031 56.24203125 -205.73414063 55.4840625 -205.08203125 54.703125 C-196.47087571 45.19853831 -184.10082787 38.73678653 -172 35 C-169.15872095 34.04338128 -166.32881396 33.05529897 -163.5 32.0625 C-162.76233398 31.80509033 -162.02466797 31.54768066 -161.26464844 31.2824707 C-156.27198407 29.5167859 -151.49678537 27.46905906 -146.70703125 25.20703125 C-141.93124516 23.07756819 -136.97824901 21.4405238 -132.04394531 19.71972656 C-121.95138611 16.1658727 -111.9368957 12.4569322 -102.09765625 8.25 C-97.4786151 6.38607419 -92.77192032 4.78875557 -88.06591797 3.15991211 C-83.76261669 1.65854671 -79.62814087 -0.00243397 -75.5 -1.9375 C-71.16310946 -3.78067848 -66.6866717 -5.24487848 -62.23413086 -6.7824707 C-58.42981362 -8.10697412 -54.71900603 -9.48634479 -51.0625 -11.1875 C-33.13526953 -19.36423298 -11.48301125 -17.95711254 0 0 Z " fill="#656568" transform="translate(371,73)"/>
<path d="M0 0 C8.99130995 3.4649415 9.09692018 8.27143516 8.82421875 17.24609375 C8.82323685 18.4487941 8.82225494 19.65149445 8.82124329 20.89064026 C8.81431124 24.74091641 8.75515604 28.58784719 8.6875 32.4375 C8.03470522 71.57338216 8.03470522 71.57338216 37.515625 91.16796875 C43.42432867 91.21017378 48.31859673 90.56728366 54 89 C57 88.875 57 88.875 59 89 C57.74640826 100.70018958 41.36834459 99.47819112 33 99 C7.54767706 96.32080811 -0.55455102 67.01361462 -0.29296875 45.80078125 C-0.28872391 44.48458298 -0.28447906 43.1683847 -0.28010559 41.81230164 C-0.2687759 38.35167622 -0.23941508 34.89144236 -0.20599365 31.43096924 C-0.17503284 27.88437188 -0.16154531 24.33770983 -0.14648438 20.79101562 C-0.11453071 13.86051856 -0.06348281 6.9302782 0 0 Z " fill="#4F4B4C" transform="translate(140,293)"/>
<path d="M0 0 C-0.53625 0.2475 -1.0725 0.495 -1.625 0.75 C-5.4887393 2.783547 -9.04186405 5.29892492 -12.5625 7.875 C-15.78196942 9.36090896 -17.02552133 8.7846872 -20 7 C-20 0.59177733 -4.71890076 -0.1387912 0 0 Z " fill="#D8D7D6" transform="translate(260,369)"/>
</svg>